<?xml version="1.0"?>
<svg xmlns="http://www.w3.org/2000/svg" xmlns:xlink="http://www.w3.org/1999/xlink" version="1.1" id="Layer_1" x="0px" y="0px" width="100%" viewBox="0 0 200 200" enable-background="new 0 0 200 200" xml:space="preserve" style="background-color:transparent;">
<path fill="none" opacity="1.000000" stroke="none" d=" M136.000000,201.000000   C90.666672,201.000000 45.833340,201.000000 1.000006,201.000000   C1.000004,134.333344 1.000004,67.666679 1.000002,1.000015   C67.666656,1.000010 134.333313,1.000010 200.999969,1.000005   C200.999985,67.666649 200.999985,134.333298 201.000000,200.999969   C179.500000,201.000000 158.000000,201.000000 136.000000,201.000000  M134.860641,146.104355   C142.389099,142.388763 150.556992,139.544846 157.223633,134.654434   C161.748978,131.334808 165.720139,129.666962 171.089935,129.907272   C177.295547,130.184998 183.523132,129.971878 190.319901,129.971878   C189.652710,128.003677 189.478790,127.024483 189.017960,126.207047   C186.078247,120.992752 183.331528,115.642326 180.005814,110.682312   C177.676773,107.208740 177.613342,103.913467 178.034241,99.943878   C178.766129,93.041679 179.751312,85.860260 178.647552,79.120636   C172.777390,43.277321 138.611130,21.038012 103.636566,30.120182   C89.344643,33.831497 77.583656,41.587475 69.373756,54.864197   C68.915184,55.118164 68.456604,55.372131 67.179817,55.691967   C39.999531,62.439705 18.094101,89.906136 23.552240,123.774132   C24.375118,128.880127 24.093315,132.941360 21.310472,137.273712   C17.777267,142.774231 14.819064,148.644073 11.156706,155.167267   C19.651806,155.167267 26.978821,154.901474 34.268719,155.305450   C36.971348,155.455231 40.127590,156.546753 42.153812,158.284927   C54.733582,169.076370 69.133499,174.807526 85.696266,173.820190   C105.451347,172.642563 121.390549,164.157486 132.878540,147.055038   C133.273911,146.736115 133.669281,146.417191 134.860641,146.104355  z"/>
<path fill="#020102" opacity="1.000000" stroke="none" d=" M67.998032,55.626099   C68.456604,55.372131 68.915184,55.118164 70.011047,54.786140   C107.088242,46.874157 142.228546,74.656525 143.178696,111.896591   C143.494095,124.258110 139.807281,135.419189 134.064636,146.098267   C133.669281,146.417191 133.273911,146.736115 132.240631,147.148224   C92.498299,154.946014 57.951988,125.722717 58.895756,85.834503   C59.154869,74.883087 63.132870,65.142960 67.998032,55.626099  M99.136459,106.527969   C104.864464,106.895233 108.550423,103.152100 106.263367,98.932175   C105.337158,97.223175 102.769089,95.275902 101.089981,95.397392   C99.126907,95.539413 95.985703,97.638199 95.767899,99.220184   C95.470253,101.382195 97.447960,103.857475 99.136459,106.527969  M83.337418,106.860207   C87.195221,105.885269 89.864922,103.554359 88.307945,99.541313   C87.562485,97.619926 84.383606,95.197144 82.686928,95.459496   C80.608009,95.780960 77.864487,98.400940 77.314301,100.521629   C76.407761,104.015900 78.997208,106.221664 83.337418,106.860207  M115.814034,96.156654   C112.879631,98.678688 111.813934,101.971443 114.805321,104.575813   C116.432327,105.992310 120.203644,106.531235 122.069885,105.595467   C123.615883,104.820274 124.853844,101.022636 124.336769,99.063225   C123.382446,95.446884 120.275963,94.126549 115.814034,96.156654  z"/>
<path fill="#FCA7DB" opacity="1.000000" stroke="none" d=" M134.462646,146.101318   C139.807281,135.419189 143.494095,124.258110 143.178696,111.896591   C142.228546,74.656525 107.088242,46.874157 70.237411,54.652622   C77.583656,41.587475 89.344643,33.831497 103.636566,30.120182   C138.611130,21.038012 172.777390,43.277321 178.647552,79.120636   C179.751312,85.860260 178.766129,93.041679 178.034241,99.943878   C177.613342,103.913467 177.676773,107.208740 180.005814,110.682312   C183.331528,115.642326 186.078247,120.992752 189.017960,126.207047   C189.478790,127.024483 189.652710,128.003677 190.319901,129.971878   C183.523132,129.971878 177.295547,130.184998 171.089935,129.907272   C165.720139,129.666962 161.748978,131.334808 157.223633,134.654434   C150.556992,139.544846 142.389099,142.388763 134.462646,146.101318  z"/>
<path fill="#6D5DE6" opacity="1.000000" stroke="none" d=" M67.588928,55.659035   C63.132870,65.142960 59.154869,74.883087 58.895756,85.834503   C57.951988,125.722717 92.498299,154.946014 132.042084,147.308197   C121.390549,164.157486 105.451347,172.642563 85.696266,173.820190   C69.133499,174.807526 54.733582,169.076370 42.153812,158.284927   C40.127590,156.546753 36.971348,155.455231 34.268719,155.305450   C26.978821,154.901474 19.651806,155.167267 11.156706,155.167267   C14.819064,148.644073 17.777267,142.774231 21.310472,137.273712   C24.093315,132.941360 24.375118,128.880127 23.552240,123.774132   C18.094101,89.906136 39.999531,62.439705 67.588928,55.659035  z"/>
<path fill="#E6E6E6" opacity="1.000000" stroke="none" d=" M98.793381,106.363220   C97.447960,103.857475 95.470253,101.382195 95.767899,99.220184   C95.985703,97.638199 99.126907,95.539413 101.089981,95.397392   C102.769089,95.275902 105.337158,97.223175 106.263367,98.932175   C108.550423,103.152100 104.864464,106.895233 98.793381,106.363220  z"/>
<path fill="#E6E6E6" opacity="1.000000" stroke="none" d=" M82.952271,106.863434   C78.997208,106.221664 76.407761,104.015900 77.314301,100.521629   C77.864487,98.400940 80.608009,95.780960 82.686928,95.459496   C84.383606,95.197144 87.562485,97.619926 88.307945,99.541313   C89.864922,103.554359 87.195221,105.885269 82.952271,106.863434  z"/>
<path fill="#E6E6E6" opacity="1.000000" stroke="none" d=" M116.156357,95.979446   C120.275963,94.126549 123.382446,95.446884 124.336769,99.063225   C124.853844,101.022636 123.615883,104.820274 122.069885,105.595467   C120.203644,106.531235 116.432327,105.992310 114.805321,104.575813   C111.813934,101.971443 112.879631,98.678688 116.156357,95.979446  z"/>
</svg>
