<svg width="1130" height="200" viewBox="0 0 1130 200" fill="none" xmlns="http://www.w3.org/2000/svg">
<path d="M67.998 55.6261C68.4566 55.3721 68.9152 55.1182 70.011 54.7862C107.088 46.8742 142.229 74.6565 143.179 111.897C143.494 124.258 139.807 135.419 134.065 146.098C133.669 146.417 133.274 146.736 132.241 147.148C92.4983 154.946 57.952 125.723 58.8958 85.8345C59.1549 74.8831 63.1329 65.143 67.998 55.6261ZM99.1365 106.528C104.864 106.895 108.55 103.152 106.263 98.9322C105.337 97.2232 102.769 95.2759 101.09 95.3974C99.1269 95.5394 95.9857 97.6382 95.7679 99.2202C95.4703 101.382 97.448 103.857 99.1365 106.528ZM83.3374 106.86C87.1952 105.885 89.8649 103.554 88.3079 99.5413C87.5625 97.6199 84.3836 95.1972 82.6869 95.4595C80.608 95.781 77.8645 98.401 77.3143 100.522C76.4078 104.016 78.9972 106.222 83.3374 106.86ZM115.814 96.1567C112.88 98.6787 111.814 101.971 114.805 104.576C116.432 105.992 120.204 106.531 122.07 105.595C123.616 104.82 124.854 101.023 124.337 99.0632C123.382 95.4469 120.276 94.1266 115.814 96.1567Z" fill="white"/>
<path d="M134.463 146.101C139.807 135.419 143.494 124.258 143.179 111.897C142.229 74.6565 107.088 46.8741 70.2374 54.6526C77.5837 41.5875 89.3446 33.8315 103.637 30.1202C138.611 21.038 172.777 43.2773 178.648 79.1206C179.751 85.8602 178.766 93.0417 178.034 99.9439C177.613 103.913 177.677 107.209 180.006 110.682C183.332 115.642 186.078 120.993 189.018 126.207C189.479 127.024 189.653 128.004 190.32 129.972C183.523 129.972 177.296 130.185 171.09 129.907C165.72 129.667 161.749 131.335 157.224 134.654C150.557 139.545 142.389 142.389 134.463 146.101Z" fill="#FCA7DB"/>
<path d="M67.5889 55.6591C63.1329 65.143 59.1549 74.8831 58.8958 85.8345C57.952 125.723 92.4983 154.946 132.042 147.308C121.391 164.158 105.451 172.643 85.6963 173.82C69.1335 174.808 54.7336 169.076 42.1538 158.285C40.1276 156.547 36.9713 155.455 34.2687 155.305C26.9788 154.901 19.6518 155.167 11.1567 155.167C14.8191 148.644 17.7773 142.774 21.3105 137.274C24.0933 132.941 24.3751 128.88 23.5522 123.774C18.0941 89.9062 39.9995 62.4397 67.5889 55.6591Z" fill="#6D5DE6"/>
<path d="M98.7934 106.363C97.448 103.857 95.4702 101.382 95.7679 99.2202C95.9857 97.6382 99.1269 95.5394 101.09 95.3974C102.769 95.2759 105.337 97.2232 106.263 98.9322C108.55 103.152 104.864 106.895 98.7934 106.363Z" fill="black"/>
<path d="M82.9523 106.863C78.9972 106.222 76.4078 104.016 77.3143 100.522C77.8645 98.4009 80.608 95.781 82.6869 95.4595C84.3836 95.1971 87.5625 97.6199 88.3079 99.5413C89.8649 103.554 87.1952 105.885 82.9523 106.863Z" fill="black"/>
<path d="M116.156 95.9794C120.276 94.1265 123.382 95.4469 124.337 99.0632C124.854 101.023 123.616 104.82 122.07 105.595C120.204 106.531 116.432 105.992 114.805 104.576C111.814 101.971 112.88 98.6787 116.156 95.9794Z" fill="black"/>
<path d="M727.59 36.4377C727.621 36.4817 727.663 36.5175 727.711 36.5422C727.758 36.5669 727.811 36.5797 727.865 36.5797C727.919 36.5797 727.971 36.5669 728.019 36.5422C728.067 36.5175 728.108 36.4817 728.14 36.4377C736.8 24.4899 748.56 18.3504 763.42 18.0193C769.247 17.8842 774.5 18.4586 779.18 19.7426C792.62 23.4222 803.38 33.2447 809.23 45.9764C812.4 52.8795 813.61 61.4957 813.61 69.9193C813.603 110.737 813.613 147.759 813.64 180.987C813.64 181.061 813.626 181.133 813.598 181.201C813.57 181.268 813.53 181.33 813.479 181.382C813.428 181.433 813.367 181.474 813.3 181.502C813.234 181.53 813.162 181.545 813.09 181.545H782.52C782.374 181.545 782.234 181.486 782.131 181.382C782.028 181.277 781.97 181.135 781.97 180.987C781.917 142.312 781.907 105.435 781.94 70.3552C781.94 67.375 781.653 64.8746 781.08 62.854C778.95 55.363 772.61 50.4264 764.95 49.7878C753.05 48.8045 744.16 57.2079 744.13 69.0982C744.057 101.083 744.063 138.362 744.15 180.937C744.15 181.018 744.134 181.098 744.103 181.173C744.073 181.248 744.028 181.316 743.971 181.374C743.915 181.431 743.847 181.477 743.773 181.508C743.699 181.539 743.62 181.555 743.54 181.555H712.8C712.665 181.555 712.535 181.499 712.439 181.401C712.344 181.302 712.29 181.168 712.29 181.028C712.323 170.628 712.333 133.821 712.32 70.6086C712.32 68.4191 711.8 63.3304 710.73 60.9078C709.33 57.7721 707.14 55.2042 704.16 53.2038C700.627 50.8386 696.8 49.6864 692.68 49.7473C683.55 49.879 677.07 55.2008 675.38 64.2326C675.053 66.0032 674.89 68.0778 674.89 70.4566C674.863 122.944 674.883 159.859 674.95 181.2C674.95 181.294 674.913 181.385 674.847 181.451C674.782 181.518 674.693 181.555 674.6 181.555H643.56C643.43 181.555 643.305 181.502 643.213 181.407C643.121 181.311 643.07 181.183 643.07 181.048C643.103 114.477 643.097 78.8464 643.05 74.1565C642.99 67.9866 643.243 62.5127 643.81 57.735C644.923 48.4295 648.693 40.1343 655.12 32.8493C662.453 24.5372 671.567 19.7561 682.46 18.5059C688.76 17.7862 696.62 17.8977 702.92 19.5601C712.827 22.1686 721.05 27.7945 727.59 36.4377Z" fill="white"/>
<path d="M620.01 181.397H590.24C590.099 181.397 589.965 181.341 589.865 181.24C589.766 181.139 589.71 181.003 589.71 180.86V131.068C589.71 130.77 589.594 130.484 589.388 130.273C589.181 130.062 588.902 129.943 588.61 129.943H540.84C540.527 129.943 540.227 130.069 540.006 130.294C539.784 130.518 539.66 130.822 539.66 131.139V180.901C539.66 181.035 539.608 181.164 539.516 181.259C539.425 181.354 539.3 181.407 539.17 181.407H507.6C507.563 181.407 507.527 181.4 507.493 181.386C507.459 181.372 507.428 181.351 507.402 181.324C507.376 181.298 507.355 181.267 507.341 181.232C507.327 181.198 507.32 181.161 507.32 181.124C507.273 129.987 507.287 94.2079 507.36 73.7858C507.38 66.3387 508.767 59.1653 511.52 52.2656C517.78 36.574 531.3 24.6329 547.33 20.0511C556.57 17.4156 568.39 17.446 578.13 19.4226C598.93 23.6294 614.3 40.6084 619.3 60.9629C620.187 64.5783 620.627 69.819 620.62 76.685C620.587 124.226 620.597 158.914 620.65 180.748C620.65 180.921 620.583 181.086 620.463 181.207C620.342 181.329 620.18 181.397 620.01 181.397ZM540.72 99.8676L588.46 99.7054C588.612 99.7041 588.763 99.6724 588.903 99.6121C589.043 99.5518 589.17 99.464 589.277 99.3539C589.384 99.2438 589.468 99.1134 589.525 98.9702C589.583 98.827 589.611 98.6739 589.61 98.5195L589.53 76.0261C589.505 69.0987 586.89 62.4646 582.26 57.5829C577.63 52.7013 571.364 49.9718 564.84 49.995H563.98C560.749 50.0064 557.552 50.6935 554.572 52.0171C551.591 53.3407 548.886 55.2748 546.61 57.709C544.334 60.1432 542.532 63.0299 541.307 66.204C540.082 69.3782 539.458 72.7777 539.47 76.2085L539.55 98.7019C539.551 98.8563 539.583 99.009 539.642 99.1511C539.702 99.2933 539.788 99.4222 539.897 99.5304C540.005 99.6386 540.134 99.7241 540.275 99.782C540.416 99.8399 540.568 99.869 540.72 99.8676Z" fill="white"/>
<path d="M296.38 49.2008H254.36C254.313 49.2008 254.266 49.1914 254.222 49.173C254.179 49.1547 254.139 49.1278 254.105 49.0939C254.072 49.0601 254.045 49.0198 254.027 48.9756C254.009 48.9313 254 48.8838 254 48.8359V18.3649C254 18.317 254.009 18.2695 254.027 18.2253C254.045 18.181 254.072 18.1408 254.105 18.1069C254.139 18.073 254.179 18.0461 254.222 18.0278C254.266 18.0094 254.313 18 254.36 18H371.09C371.137 18 371.184 18.0094 371.228 18.0278C371.271 18.0461 371.311 18.073 371.345 18.1069C371.378 18.1408 371.405 18.181 371.423 18.2253C371.441 18.2695 371.45 18.317 371.45 18.3649V48.8359C371.45 48.9327 371.412 49.0255 371.345 49.0939C371.277 49.1624 371.185 49.2008 371.09 49.2008H330.1C330.005 49.2008 329.913 49.2393 329.845 49.3077C329.778 49.3761 329.74 49.469 329.74 49.5658V180.421C329.74 180.517 329.702 180.61 329.635 180.679C329.567 180.747 329.475 180.786 329.38 180.786H297.1C297.005 180.786 296.913 180.747 296.845 180.679C296.778 180.61 296.74 180.517 296.74 180.421V49.5658C296.74 49.469 296.702 49.3761 296.635 49.3077C296.567 49.2393 296.475 49.2008 296.38 49.2008Z" fill="#6D5DE6"/>
<path d="M476.17 114.727C476.17 114.787 476.147 114.843 476.105 114.885C476.064 114.927 476.008 114.95 475.95 114.95H417.25C417.083 114.95 416.923 115.018 416.804 115.137C416.686 115.257 416.62 115.42 416.62 115.589C416.62 123.009 416.6 127.932 416.56 130.358C416.493 135.055 417.02 138.566 418.14 140.89C420.84 146.496 426.25 149.77 432.43 149.882C436.25 149.949 453.297 149.942 483.57 149.861C483.671 149.861 483.767 149.903 483.839 149.977C483.91 150.051 483.95 150.152 483.95 150.257V180.505C483.95 180.596 483.915 180.684 483.853 180.748C483.791 180.813 483.707 180.849 483.62 180.849C464.253 180.802 447.677 180.819 433.89 180.9C426.863 180.947 421.44 180.437 417.62 179.369C402.07 175.031 390.36 163.211 385.97 147.52C384.93 143.803 384.457 137.123 384.55 127.479C384.67 115.16 384.697 94.6162 384.63 65.8482C384.623 60.9758 385.443 55.8534 387.09 50.4809C392.25 33.6742 405.79 21.1148 423.64 18.4995C426.087 18.1414 428.7 17.9758 431.48 18.0028C435.913 18.0366 453.217 18.0535 483.39 18.0535C483.536 18.0535 483.676 18.1123 483.779 18.2168C483.882 18.3214 483.94 18.4632 483.94 18.6111V48.7475C483.94 48.8766 483.889 49.0003 483.799 49.0916C483.709 49.1828 483.587 49.2341 483.46 49.2341C461.387 49.2543 447.007 49.2611 440.32 49.2544C433.253 49.2409 428.5 49.8085 426.06 50.9573C421.407 53.1536 418.287 57.3063 416.7 63.4153C416.66 63.5701 416.64 63.7268 416.64 63.8816L416.57 84.0639C416.57 84.2198 416.631 84.3693 416.74 84.4796C416.849 84.5898 416.996 84.6518 417.15 84.6518H475.73C475.847 84.6518 475.958 84.6998 476.041 84.7854C476.123 84.8709 476.17 84.987 476.17 85.1079V114.727Z" fill="#6D5DE6"/>
<path d="M870.84 18H839.42C839.16 18 838.95 18.2133 838.95 18.4764V180.299C838.95 180.562 839.16 180.775 839.42 180.775H870.84C871.099 180.775 871.31 180.562 871.31 180.299V18.4764C871.31 18.2133 871.099 18 870.84 18Z" fill="white"/>
<path d="M985.69 85.2377V114.411C985.69 114.484 985.676 114.557 985.648 114.625C985.621 114.692 985.58 114.754 985.529 114.805C985.478 114.857 985.417 114.898 985.35 114.926C985.284 114.954 985.212 114.969 985.14 114.969H928.1C927.981 114.969 927.866 115.017 927.782 115.102C927.697 115.188 927.65 115.304 927.65 115.425V180.634C927.65 180.661 927.645 180.687 927.635 180.712C927.625 180.737 927.61 180.759 927.591 180.778C927.573 180.796 927.551 180.811 927.527 180.822C927.502 180.832 927.476 180.837 927.45 180.837H896.43C896.335 180.837 896.243 180.799 896.175 180.73C896.108 180.662 896.07 180.569 896.07 180.472C896.063 104.704 896.057 66.6841 896.05 66.4138C896 63.0991 896.67 58.4666 897.11 56.125C900.66 37.1592 913.3 23.4645 931.68 19.0956C934.84 18.3455 940.053 17.9805 947.32 18.0008C975.78 18.0751 991.333 18.0988 993.98 18.0718C994.068 18.0704 994.154 18.087 994.236 18.1205C994.317 18.154 994.391 18.2039 994.453 18.2671C994.515 18.3303 994.565 18.4056 994.599 18.4887C994.633 18.5717 994.65 18.6609 994.65 18.7509V48.7657C994.65 48.8283 994.638 48.8903 994.614 48.9481C994.591 49.0059 994.556 49.0584 994.512 49.1026C994.469 49.1469 994.417 49.182 994.36 49.2059C994.303 49.2299 994.242 49.2422 994.18 49.2422C968.56 49.2895 953.873 49.2996 950.12 49.2726C944.373 49.2253 940.32 49.7288 937.96 50.783C934.013 52.54 931.107 55.3986 929.24 59.3586C928.1 61.7779 927.55 65.5116 927.59 70.5597C927.637 77.6148 927.663 82.1291 927.67 84.1024C927.67 84.2502 927.728 84.392 927.831 84.4966C927.934 84.6011 928.074 84.6599 928.22 84.6599H985.12C985.271 84.6599 985.416 84.7208 985.523 84.8291C985.63 84.9375 985.69 85.0844 985.69 85.2377Z" fill="#FCA7DB"/>
<path d="M1054.75 180.238V134.288C1054.75 134.09 1054.68 133.898 1054.56 133.744C1054.44 133.589 1054.26 133.481 1054.07 133.437C1048.73 132.271 1043.04 129.707 1038.57 126.666C1021.06 114.752 1012.35 97.607 1012.43 75.2319C1012.51 50.8362 1012.53 31.9008 1012.49 18.4257C1012.49 18.3698 1012.5 18.3145 1012.52 18.2628C1012.54 18.2112 1012.57 18.1642 1012.61 18.1247C1012.65 18.0852 1012.7 18.0538 1012.75 18.0324C1012.8 18.011 1012.85 18 1012.91 18H1044.28C1044.37 18 1044.45 18.0352 1044.51 18.098C1044.58 18.1607 1044.61 18.2458 1044.61 18.3345C1044.62 44.1899 1044.61 60.6925 1044.58 67.8422C1044.55 75.6745 1044.75 80.5672 1045.2 82.5202C1046.27 87.2304 1048.59 91.4878 1052.14 95.2925C1059.41 103.098 1070.57 105.206 1080.64 102.054C1088.42 99.6107 1094.74 92.3832 1097.38 84.5881C1098.37 81.6755 1098.83 77.56 1098.77 72.2416C1098.71 66.4434 1098.7 48.5825 1098.75 18.6589C1098.75 18.4895 1098.82 18.3271 1098.93 18.2073C1099.05 18.0876 1099.21 18.0203 1099.38 18.0203H1129.09C1129.28 18.0203 1129.47 18.0982 1129.61 18.237C1129.74 18.3758 1129.82 18.564 1129.82 18.7603C1129.87 56.8203 1129.87 76.7355 1129.84 78.5061C1129.35 104.497 1113.1 127.142 1087.97 133.579C1087.8 133.622 1087.64 133.724 1087.53 133.867C1087.42 134.01 1087.36 134.187 1087.36 134.37V180.269C1087.36 180.411 1087.3 180.548 1087.2 180.648C1087.1 180.749 1086.96 180.806 1086.82 180.806H1055.32C1055.17 180.806 1055.02 180.746 1054.92 180.64C1054.81 180.533 1054.75 180.389 1054.75 180.238Z" fill="#FCA7DB"/>
</svg>
