<svg width="1221" height="261" viewBox="0 0 1221 261" fill="none" xmlns="http://www.w3.org/2000/svg">
<path d="M107.998 86.6261C108.457 86.3721 108.915 86.1182 110.011 85.7861C147.088 77.8741 182.229 105.657 183.179 142.897C183.494 155.258 179.807 166.419 174.065 177.098C173.669 177.417 173.274 177.736 172.241 178.148C132.498 185.946 97.952 156.723 98.8958 116.834C99.1549 105.883 103.133 96.1429 107.998 86.6261ZM139.136 137.528C144.864 137.895 148.55 134.152 146.263 129.932C145.337 128.223 142.769 126.276 141.09 126.397C139.127 126.539 135.986 128.638 135.768 130.22C135.47 132.382 137.448 134.857 139.136 137.528ZM123.337 137.86C127.195 136.885 129.865 134.554 128.308 130.541C127.562 128.62 124.384 126.197 122.687 126.459C120.608 126.781 117.864 129.401 117.314 131.522C116.408 135.016 118.997 137.222 123.337 137.86ZM155.814 127.157C152.88 129.679 151.814 132.971 154.805 135.576C156.432 136.992 160.204 137.531 162.07 136.595C163.616 135.82 164.854 132.023 164.337 130.063C163.382 126.447 160.276 125.127 155.814 127.157Z" fill="#020102"/>
<path d="M174.463 177.101C179.807 166.419 183.494 155.258 183.179 142.897C182.229 105.657 147.088 77.8742 110.237 85.6526C117.584 72.5875 129.345 64.8315 143.637 61.1202C178.611 52.038 212.777 74.2773 218.648 110.121C219.751 116.86 218.766 124.042 218.034 130.944C217.613 134.913 217.677 138.209 220.006 141.682C223.332 146.642 226.078 151.993 229.018 157.207C229.479 158.024 229.653 159.004 230.32 160.972C223.523 160.972 217.296 161.185 211.09 160.907C205.72 160.667 201.749 162.335 197.224 165.654C190.557 170.545 182.389 173.389 174.463 177.101Z" fill="#FCA7DB"/>
<path d="M107.589 86.659C103.133 96.143 99.1549 105.883 98.8958 116.834C97.952 156.723 132.498 185.946 172.042 178.308C161.391 195.157 145.451 203.643 125.696 204.82C109.133 205.808 94.7336 200.076 82.1538 189.285C80.1276 187.547 76.9713 186.455 74.2687 186.305C66.9788 185.901 59.6518 186.167 51.1567 186.167C54.8191 179.644 57.7773 173.774 61.3105 168.274C64.0933 163.941 64.3751 159.88 63.5522 154.774C58.0941 120.906 79.9995 93.4397 107.589 86.659Z" fill="#6D5DE6"/>
<path d="M138.793 137.363C137.448 134.857 135.47 132.382 135.768 130.22C135.986 128.638 139.127 126.539 141.09 126.397C142.769 126.276 145.337 128.223 146.263 129.932C148.55 134.152 144.864 137.895 138.793 137.363Z" fill="#E6E6E6"/>
<path d="M122.952 137.863C118.997 137.222 116.408 135.016 117.314 131.522C117.864 129.401 120.608 126.781 122.687 126.459C124.384 126.197 127.562 128.62 128.308 130.541C129.865 134.554 127.195 136.885 122.952 137.863Z" fill="#E6E6E6"/>
<path d="M156.156 126.979C160.276 125.127 163.382 126.447 164.337 130.063C164.854 132.023 163.616 135.82 162.07 136.595C160.204 137.531 156.432 136.992 154.805 135.576C151.814 132.971 152.88 129.679 156.156 126.979Z" fill="#E6E6E6"/>
<path d="M767.59 67.4377C767.621 67.4817 767.663 67.5175 767.711 67.5422C767.758 67.5669 767.811 67.5797 767.865 67.5797C767.919 67.5797 767.971 67.5669 768.019 67.5422C768.067 67.5175 768.108 67.4817 768.14 67.4377C776.8 55.4899 788.56 49.3504 803.42 49.0193C809.247 48.8842 814.5 49.4586 819.18 50.7426C832.62 54.4222 843.38 64.2447 849.23 76.9764C852.4 83.8795 853.61 92.4957 853.61 100.919C853.603 141.737 853.613 178.759 853.64 211.987C853.64 212.061 853.626 212.133 853.598 212.201C853.57 212.268 853.53 212.33 853.479 212.382C853.428 212.433 853.367 212.474 853.3 212.502C853.234 212.53 853.162 212.545 853.09 212.545H822.52C822.374 212.545 822.234 212.486 822.131 212.382C822.028 212.277 821.97 212.135 821.97 211.987C821.917 173.312 821.907 136.435 821.94 101.355C821.94 98.375 821.653 95.8746 821.08 93.854C818.95 86.363 812.61 81.4264 804.95 80.7878C793.05 79.8045 784.16 88.2079 784.13 100.098C784.057 132.083 784.063 169.362 784.15 211.937C784.15 212.018 784.134 212.098 784.104 212.173C784.073 212.248 784.028 212.316 783.971 212.374C783.915 212.431 783.847 212.477 783.773 212.508C783.699 212.539 783.62 212.555 783.54 212.555H752.8C752.665 212.555 752.535 212.499 752.439 212.401C752.344 212.302 752.29 212.168 752.29 212.028C752.323 201.628 752.333 164.821 752.32 101.609C752.32 99.4191 751.8 94.3304 750.73 91.9078C749.33 88.7721 747.14 86.2042 744.16 84.2038C740.627 81.8386 736.8 80.6864 732.68 80.7473C723.55 80.879 717.07 86.2008 715.38 95.2326C715.053 97.0032 714.89 99.0778 714.89 101.457C714.863 153.944 714.883 190.859 714.95 212.2C714.95 212.294 714.913 212.385 714.847 212.451C714.782 212.518 714.693 212.555 714.6 212.555H683.56C683.43 212.555 683.305 212.502 683.213 212.407C683.122 212.311 683.07 212.183 683.07 212.048C683.103 145.477 683.097 109.846 683.05 105.156C682.99 98.9866 683.243 93.5127 683.81 88.735C684.923 79.4295 688.693 71.1343 695.12 63.8493C702.453 55.5372 711.567 50.7561 722.46 49.5059C728.76 48.7862 736.62 48.8977 742.92 50.5601C752.827 53.1686 761.05 58.7945 767.59 67.4377Z" fill="#020102"/>
<path d="M660.01 212.397H630.24C630.099 212.397 629.965 212.341 629.865 212.24C629.766 212.139 629.71 212.003 629.71 211.86V162.068C629.71 161.77 629.594 161.484 629.388 161.273C629.182 161.062 628.902 160.943 628.61 160.943H580.84C580.527 160.943 580.227 161.069 580.006 161.294C579.784 161.518 579.66 161.822 579.66 162.139V211.901C579.66 212.035 579.608 212.164 579.516 212.259C579.425 212.354 579.3 212.407 579.17 212.407H547.6C547.563 212.407 547.527 212.4 547.493 212.386C547.459 212.372 547.428 212.351 547.402 212.324C547.376 212.298 547.355 212.267 547.341 212.232C547.327 212.198 547.32 212.161 547.32 212.124C547.273 160.987 547.287 125.208 547.36 104.786C547.38 97.3387 548.767 90.1653 551.52 83.2656C557.78 67.574 571.3 55.6329 587.33 51.0511C596.57 48.4156 608.39 48.446 618.13 50.4226C638.93 54.6294 654.3 71.6084 659.3 91.9629C660.187 95.5783 660.627 100.819 660.62 107.685C660.587 155.226 660.597 189.914 660.65 211.748C660.65 211.921 660.583 212.086 660.463 212.207C660.343 212.329 660.18 212.397 660.01 212.397ZM580.72 130.868L628.46 130.705C628.612 130.704 628.763 130.672 628.903 130.612C629.043 130.552 629.171 130.464 629.277 130.354C629.384 130.244 629.468 130.113 629.526 129.97C629.583 129.827 629.611 129.674 629.61 129.519L629.53 107.026C629.505 100.099 626.89 93.4646 622.26 88.5829C617.63 83.7013 611.364 80.9718 604.84 80.995H603.98C600.749 81.0064 597.552 81.6935 594.572 83.0171C591.592 84.3407 588.886 86.2748 586.61 88.709C584.334 91.1432 582.532 94.0299 581.307 97.204C580.082 100.378 579.458 103.778 579.47 107.209L579.55 129.702C579.551 129.856 579.583 130.009 579.642 130.151C579.702 130.293 579.788 130.422 579.897 130.53C580.005 130.639 580.134 130.724 580.275 130.782C580.417 130.84 580.568 130.869 580.72 130.868Z" fill="#020102"/>
<path d="M336.38 80.2008H294.36C294.313 80.2008 294.266 80.1914 294.222 80.173C294.179 80.1547 294.139 80.1278 294.105 80.0939C294.072 80.0601 294.045 80.0198 294.027 79.9756C294.009 79.9313 294 79.8838 294 79.8359V49.3649C294 49.317 294.009 49.2695 294.027 49.2253C294.045 49.181 294.072 49.1408 294.105 49.1069C294.139 49.073 294.179 49.0461 294.222 49.0278C294.266 49.0094 294.313 49 294.36 49H411.09C411.137 49 411.184 49.0094 411.228 49.0278C411.271 49.0461 411.311 49.073 411.345 49.1069C411.378 49.1408 411.405 49.181 411.423 49.2253C411.441 49.2695 411.45 49.317 411.45 49.3649V79.8359C411.45 79.9327 411.412 80.0255 411.345 80.0939C411.277 80.1624 411.185 80.2008 411.09 80.2008H370.1C370.005 80.2008 369.913 80.2393 369.845 80.3077C369.778 80.3761 369.74 80.469 369.74 80.5658V211.421C369.74 211.517 369.702 211.61 369.635 211.679C369.567 211.747 369.475 211.786 369.38 211.786H337.1C337.005 211.786 336.913 211.747 336.845 211.679C336.778 211.61 336.74 211.517 336.74 211.421V80.5658C336.74 80.469 336.702 80.3761 336.635 80.3077C336.567 80.2393 336.475 80.2008 336.38 80.2008Z" fill="#6D5DE6"/>
<path d="M516.17 145.727C516.17 145.787 516.147 145.843 516.106 145.885C516.064 145.927 516.008 145.95 515.95 145.95H457.25C457.083 145.95 456.923 146.018 456.805 146.137C456.686 146.257 456.62 146.42 456.62 146.589C456.62 154.009 456.6 158.932 456.56 161.358C456.493 166.055 457.02 169.566 458.14 171.89C460.84 177.496 466.25 180.77 472.43 180.882C476.25 180.949 493.297 180.942 523.57 180.861C523.671 180.861 523.767 180.903 523.839 180.977C523.91 181.051 523.95 181.152 523.95 181.257V211.505C523.95 211.596 523.915 211.684 523.853 211.748C523.791 211.813 523.708 211.849 523.62 211.849C504.253 211.802 487.677 211.819 473.89 211.9C466.863 211.947 461.44 211.437 457.62 210.369C442.07 206.031 430.36 194.211 425.97 178.52C424.93 174.803 424.457 168.123 424.55 158.479C424.67 146.16 424.697 125.616 424.63 96.8482C424.623 91.9758 425.443 86.8534 427.09 81.4809C432.25 64.6742 445.79 52.1148 463.64 49.4995C466.087 49.1414 468.7 48.9758 471.48 49.0028C475.913 49.0366 493.217 49.0535 523.39 49.0535C523.536 49.0535 523.676 49.1123 523.779 49.2168C523.882 49.3214 523.94 49.4632 523.94 49.6111V79.7475C523.94 79.8766 523.889 80.0003 523.799 80.0916C523.709 80.1828 523.587 80.2341 523.46 80.2341C501.387 80.2543 487.007 80.2611 480.32 80.2544C473.253 80.2409 468.5 80.8085 466.06 81.9573C461.407 84.1536 458.287 88.3063 456.7 94.4153C456.66 94.5701 456.64 94.7268 456.64 94.8816L456.57 115.064C456.57 115.22 456.631 115.369 456.74 115.48C456.849 115.59 456.996 115.652 457.15 115.652H515.73C515.847 115.652 515.959 115.7 516.041 115.785C516.124 115.871 516.17 115.987 516.17 116.108V145.727Z" fill="#6D5DE6"/>
<path d="M910.84 49H879.42C879.16 49 878.95 49.2133 878.95 49.4764V211.299C878.95 211.562 879.16 211.775 879.42 211.775H910.84C911.099 211.775 911.31 211.562 911.31 211.299V49.4764C911.31 49.2133 911.099 49 910.84 49Z" fill="#020102"/>
<path d="M1025.69 116.238V145.411C1025.69 145.484 1025.68 145.557 1025.65 145.625C1025.62 145.692 1025.58 145.754 1025.53 145.805C1025.48 145.857 1025.42 145.898 1025.35 145.926C1025.28 145.954 1025.21 145.969 1025.14 145.969H968.1C967.981 145.969 967.866 146.017 967.782 146.102C967.697 146.188 967.65 146.304 967.65 146.425V211.634C967.65 211.661 967.645 211.687 967.635 211.712C967.625 211.737 967.61 211.759 967.591 211.778C967.573 211.796 967.551 211.811 967.527 211.822C967.502 211.832 967.476 211.837 967.45 211.837H936.43C936.335 211.837 936.243 211.799 936.175 211.73C936.108 211.662 936.07 211.569 936.07 211.472C936.063 135.704 936.057 97.6841 936.05 97.4138C936 94.0991 936.67 89.4666 937.11 87.125C940.66 68.1592 953.3 54.4645 971.68 50.0956C974.84 49.3455 980.053 48.9805 987.32 49.0008C1015.78 49.0751 1031.33 49.0988 1033.98 49.0718C1034.07 49.0704 1034.15 49.087 1034.24 49.1205C1034.32 49.154 1034.39 49.2039 1034.45 49.2671C1034.52 49.3303 1034.56 49.4056 1034.6 49.4887C1034.63 49.5717 1034.65 49.6609 1034.65 49.7509V79.7657C1034.65 79.8283 1034.64 79.8903 1034.61 79.9481C1034.59 80.0059 1034.56 80.0584 1034.51 80.1026C1034.47 80.1469 1034.42 80.182 1034.36 80.2059C1034.3 80.2299 1034.24 80.2422 1034.18 80.2422C1008.56 80.2895 993.873 80.2996 990.12 80.2726C984.373 80.2253 980.32 80.7288 977.96 81.783C974.013 83.54 971.107 86.3986 969.24 90.3586C968.1 92.7779 967.55 96.5116 967.59 101.56C967.637 108.615 967.663 113.129 967.67 115.102C967.67 115.25 967.728 115.392 967.831 115.497C967.934 115.601 968.074 115.66 968.22 115.66H1025.12C1025.27 115.66 1025.42 115.721 1025.52 115.829C1025.63 115.937 1025.69 116.084 1025.69 116.238Z" fill="#FCA7DB"/>
<path d="M1094.75 211.238V165.288C1094.75 165.09 1094.68 164.898 1094.56 164.744C1094.44 164.589 1094.26 164.481 1094.07 164.437C1088.73 163.271 1083.04 160.707 1078.57 157.666C1061.06 145.752 1052.35 128.607 1052.43 106.232C1052.51 81.8362 1052.53 62.9008 1052.49 49.4257C1052.49 49.3698 1052.5 49.3145 1052.52 49.2628C1052.54 49.2112 1052.57 49.1642 1052.61 49.1247C1052.65 49.0852 1052.7 49.0538 1052.75 49.0324C1052.8 49.011 1052.85 49 1052.91 49H1084.28C1084.37 49 1084.45 49.0352 1084.51 49.098C1084.58 49.1607 1084.61 49.2458 1084.61 49.3345C1084.62 75.1899 1084.61 91.6925 1084.58 98.8422C1084.55 106.675 1084.75 111.567 1085.2 113.52C1086.27 118.23 1088.59 122.488 1092.14 126.292C1099.41 134.098 1110.57 136.206 1120.64 133.054C1128.42 130.611 1134.74 123.383 1137.38 115.588C1138.37 112.675 1138.83 108.56 1138.77 103.242C1138.71 97.4434 1138.7 79.5825 1138.75 49.6589C1138.75 49.4895 1138.82 49.3271 1138.93 49.2073C1139.05 49.0876 1139.21 49.0203 1139.38 49.0203H1169.09C1169.28 49.0203 1169.47 49.0982 1169.61 49.237C1169.74 49.3758 1169.82 49.564 1169.82 49.7603C1169.87 87.8203 1169.87 107.736 1169.84 109.506C1169.35 135.497 1153.1 158.142 1127.97 164.579C1127.8 164.622 1127.64 164.724 1127.53 164.867C1127.42 165.01 1127.36 165.187 1127.36 165.37V211.269C1127.36 211.411 1127.3 211.548 1127.2 211.648C1127.1 211.749 1126.96 211.806 1126.82 211.806H1095.32C1095.17 211.806 1095.02 211.746 1094.92 211.64C1094.81 211.533 1094.75 211.389 1094.75 211.238Z" fill="#FCA7DB"/>
</svg>
