<svg xmlns="http://www.w3.org/2000/svg" fill="none" viewBox="60.46605760649087 378.26380800000004 936.7419066937119 244.938936" style="max-height: 500px" width="936.7419066937119" height="244.938936">
<path fill="#4527A0" d="M554.91 445.194C554.941 445.238 554.983 445.273 555.031 445.298C555.078 445.323 555.131 445.336 555.185 445.336C555.239 445.336 555.291 445.323 555.339 445.298C555.387 445.273 555.428 445.238 555.46 445.194C564.12 433.246 575.88 427.106 590.74 426.775C596.567 426.64 601.82 427.214 606.5 428.498C619.94 432.178 630.7 442.001 636.55 454.732C639.72 461.635 640.93 470.252 640.93 478.675C640.923 519.492 640.933 556.515 640.96 589.743C640.96 589.816 640.946 589.889 640.918 589.957C640.89 590.024 640.85 590.086 640.799 590.137C640.748 590.189 640.687 590.23 640.62 590.258C640.554 590.286 640.482 590.301 640.41 590.301H609.84C609.694 590.301 609.554 590.242 609.451 590.137C609.348 590.033 609.29 589.891 609.29 589.743C609.237 551.068 609.227 514.191 609.26 479.111C609.26 476.131 608.973 473.63 608.4 471.61C606.27 464.119 599.93 459.182 592.27 458.544C580.37 457.56 571.48 465.964 571.45 477.854C571.377 509.839 571.383 547.118 571.47 589.693C571.47 589.774 571.454 589.854 571.424 589.929C571.393 590.004 571.348 590.072 571.291 590.13C571.235 590.187 571.167 590.233 571.093 590.264C571.019 590.295 570.94 590.311 570.86 590.311H540.12C539.985 590.311 539.855 590.255 539.759 590.156C539.664 590.058 539.61 589.924 539.61 589.784C539.643 579.383 539.653 542.577 539.64 479.364C539.64 477.175 539.12 472.086 538.05 469.664C536.65 466.528 534.46 463.96 531.48 461.96C527.947 459.594 524.12 458.442 520 458.503C510.87 458.635 504.39 463.957 502.7 472.988C502.373 474.759 502.21 476.834 502.21 479.212C502.183 531.7 502.203 568.615 502.27 589.956C502.27 590.05 502.233 590.14 502.167 590.207C502.102 590.273 502.013 590.311 501.92 590.311H470.88C470.75 590.311 470.625 590.257 470.533 590.162C470.442 590.067 470.39 589.938 470.39 589.804C470.423 523.233 470.417 487.602 470.37 482.912C470.31 476.742 470.563 471.269 471.13 466.491C472.243 457.185 476.013 448.89 482.44 441.605C489.773 433.293 498.887 428.512 509.78 427.262C516.08 426.542 523.94 426.654 530.24 428.316C540.147 430.924 548.37 436.55 554.91 445.194Z"/>
<path fill="#4527A0" d="M447.33 590.153H417.56C417.419 590.153 417.285 590.097 417.185 589.996C417.086 589.895 417.03 589.758 417.03 589.616V539.824C417.03 539.526 416.914 539.24 416.708 539.029C416.502 538.818 416.222 538.699 415.93 538.699H368.16C367.847 538.699 367.547 538.825 367.326 539.049C367.104 539.274 366.98 539.578 366.98 539.895V589.656C366.98 589.791 366.928 589.92 366.836 590.015C366.745 590.11 366.62 590.163 366.49 590.163H334.92C334.883 590.163 334.847 590.156 334.813 590.142C334.779 590.127 334.748 590.106 334.722 590.08C334.696 590.054 334.675 590.022 334.661 589.988C334.647 589.954 334.64 589.917 334.64 589.879C334.593 538.743 334.607 502.964 334.68 482.542C334.7 475.095 336.087 467.921 338.84 461.021C345.1 445.33 358.62 433.389 374.65 428.807C383.89 426.171 395.71 426.202 405.45 428.178C426.25 432.385 441.62 449.364 446.62 469.719C447.507 473.334 447.947 478.575 447.94 485.441C447.907 532.982 447.917 567.67 447.97 589.504C447.97 589.676 447.903 589.841 447.783 589.963C447.663 590.085 447.5 590.153 447.33 590.153ZM368.04 508.623L415.78 508.461C415.932 508.46 416.083 508.428 416.223 508.368C416.363 508.308 416.491 508.22 416.597 508.11C416.704 508 416.788 507.869 416.846 507.726C416.903 507.583 416.931 507.43 416.93 507.275L416.85 484.782C416.825 477.855 414.21 471.22 409.58 466.339C404.95 461.457 398.684 458.728 392.16 458.751H391.3C388.069 458.762 384.872 459.449 381.892 460.773C378.912 462.097 376.206 464.031 373.93 466.465C371.654 468.899 369.852 471.786 368.627 474.96C367.402 478.134 366.778 481.534 366.79 484.964L366.87 507.458C366.871 507.612 366.903 507.765 366.962 507.907C367.022 508.049 367.108 508.178 367.217 508.286C367.325 508.395 367.454 508.48 367.595 508.538C367.737 508.596 367.888 508.625 368.04 508.623Z"/>
<path fill="#4527A0" d="M123.7 457.957H81.68C81.6327 457.957 81.5859 457.947 81.5422 457.929C81.4986 457.911 81.4589 457.884 81.4254 457.85C81.392 457.816 81.3655 457.776 81.3474 457.731C81.3293 457.687 81.32 457.64 81.32 457.592V427.121C81.32 427.073 81.3293 427.025 81.3474 426.981C81.3655 426.937 81.392 426.897 81.4254 426.863C81.4589 426.829 81.4986 426.802 81.5422 426.784C81.5859 426.765 81.6327 426.756 81.68 426.756H198.41C198.457 426.756 198.504 426.765 198.548 426.784C198.591 426.802 198.631 426.829 198.665 426.863C198.698 426.897 198.725 426.937 198.743 426.981C198.761 427.025 198.77 427.073 198.77 427.121V457.592C198.77 457.689 198.732 457.781 198.665 457.85C198.597 457.918 198.505 457.957 198.41 457.957H157.42C157.325 457.957 157.233 457.995 157.165 458.064C157.098 458.132 157.06 458.225 157.06 458.322V589.177C157.06 589.273 157.022 589.366 156.955 589.435C156.887 589.503 156.795 589.541 156.7 589.541H124.42C124.325 589.541 124.233 589.503 124.165 589.435C124.098 589.366 124.06 589.273 124.06 589.177V458.322C124.06 458.225 124.022 458.132 123.955 458.064C123.887 457.995 123.795 457.957 123.7 457.957Z"/>
<path fill="#4527A0" d="M303.49 523.483C303.49 523.542 303.467 523.599 303.426 523.641C303.384 523.683 303.328 523.706 303.27 523.706H244.57C244.403 523.706 244.243 523.774 244.125 523.893C244.006 524.013 243.94 524.176 243.94 524.345C243.94 531.765 243.92 536.688 243.88 539.114C243.813 543.811 244.34 547.321 245.46 549.646C248.16 555.252 253.57 558.526 259.75 558.637C263.57 558.705 280.617 558.698 310.89 558.617C310.991 558.617 311.087 558.659 311.159 558.733C311.23 558.807 311.27 558.908 311.27 559.013V589.26C311.27 589.352 311.235 589.44 311.173 589.504C311.111 589.569 311.028 589.605 310.94 589.605C291.573 589.558 274.997 589.575 261.21 589.656C254.183 589.703 248.76 589.193 244.94 588.125C229.39 583.787 217.68 571.967 213.29 556.276C212.25 552.559 211.777 545.879 211.87 536.235C211.99 523.916 212.017 503.372 211.95 474.604C211.943 469.732 212.763 464.609 214.41 459.237C219.57 442.43 233.11 429.871 250.96 427.255C253.407 426.897 256.02 426.732 258.8 426.759C263.233 426.792 280.537 426.809 310.71 426.809C310.856 426.809 310.996 426.868 311.099 426.973C311.202 427.077 311.26 427.219 311.26 427.367V457.503C311.26 457.632 311.209 457.756 311.119 457.847C311.029 457.939 310.907 457.99 310.78 457.99C288.707 458.01 274.327 458.017 267.64 458.01C260.573 457.997 255.82 458.564 253.38 459.713C248.727 461.909 245.607 466.062 244.02 472.171C243.98 472.326 243.96 472.483 243.96 472.638L243.89 492.82C243.89 492.976 243.951 493.125 244.06 493.235C244.169 493.346 244.316 493.408 244.47 493.408H303.05C303.167 493.408 303.279 493.456 303.361 493.541C303.444 493.627 303.49 493.743 303.49 493.864V523.483Z"/>
<path fill="#4527A0" d="M698.16 426.756H666.74C666.48 426.756 666.27 426.969 666.27 427.232V589.055C666.27 589.318 666.48 589.531 666.74 589.531H698.16C698.42 589.531 698.63 589.318 698.63 589.055V427.232C698.63 426.969 698.42 426.756 698.16 426.756Z"/>
<path fill="#4527A0" d="M813.01 493.994V523.167C813.01 523.24 812.996 523.313 812.968 523.38C812.941 523.448 812.9 523.509 812.849 523.561C812.798 523.613 812.737 523.654 812.671 523.682C812.604 523.71 812.532 523.725 812.46 523.725H755.42C755.301 523.725 755.186 523.773 755.102 523.858C755.017 523.944 754.97 524.06 754.97 524.181V589.39C754.97 589.417 754.965 589.443 754.955 589.468C754.945 589.492 754.93 589.515 754.912 589.534C754.893 589.552 754.871 589.567 754.847 589.578C754.822 589.588 754.796 589.593 754.77 589.593H723.75C723.655 589.593 723.563 589.554 723.496 589.486C723.428 589.418 723.39 589.325 723.39 589.228C723.383 513.459 723.377 475.44 723.37 475.17C723.32 471.855 723.99 467.222 724.43 464.881C727.98 445.915 740.62 432.22 759 427.851C762.16 427.101 767.373 426.736 774.64 426.757C803.1 426.831 818.653 426.855 821.3 426.828C821.388 426.826 821.474 426.843 821.556 426.876C821.637 426.91 821.711 426.96 821.773 427.023C821.836 427.086 821.885 427.161 821.919 427.245C821.953 427.328 821.97 427.417 821.97 427.507V457.522C821.97 457.584 821.958 457.646 821.934 457.704C821.911 457.762 821.876 457.814 821.832 457.858C821.789 457.903 821.737 457.938 821.68 457.962C821.623 457.986 821.562 457.998 821.5 457.998C795.88 458.045 781.193 458.055 777.44 458.028C771.693 457.981 767.64 458.485 765.28 459.539C761.333 461.296 758.427 464.154 756.56 468.114C755.42 470.534 754.87 474.267 754.91 479.316C754.957 486.371 754.983 490.885 754.99 492.858C754.99 493.006 755.048 493.148 755.151 493.252C755.254 493.357 755.394 493.416 755.54 493.416H812.44C812.591 493.416 812.736 493.477 812.843 493.585C812.95 493.693 813.01 493.84 813.01 493.994Z"/>
<path fill="#4527A0" d="M882.07 588.994V543.044C882.07 542.846 882.002 542.654 881.879 542.499C881.755 542.345 881.583 542.237 881.39 542.193C876.05 541.027 870.36 538.463 865.89 535.421C848.383 523.507 839.67 506.363 839.75 483.988C839.83 459.592 839.85 440.657 839.81 427.182C839.81 427.126 839.821 427.07 839.842 427.019C839.863 426.967 839.894 426.92 839.933 426.881C839.972 426.841 840.018 426.81 840.069 426.788C840.12 426.767 840.175 426.756 840.23 426.756H871.6C871.688 426.756 871.772 426.791 871.833 426.854C871.895 426.917 871.93 427.002 871.93 427.09C871.943 452.946 871.933 469.448 871.9 476.598C871.867 484.43 872.073 489.323 872.52 491.276C873.593 495.986 875.907 500.244 879.46 504.048C886.73 511.854 897.89 513.962 907.96 510.81C915.74 508.367 922.06 501.139 924.7 493.344C925.687 490.431 926.15 486.316 926.09 480.997C926.03 475.199 926.023 457.338 926.07 427.415C926.07 427.245 926.136 427.083 926.255 426.963C926.373 426.843 926.533 426.776 926.7 426.776H956.41C956.604 426.776 956.789 426.854 956.926 426.993C957.063 427.132 957.14 427.32 957.14 427.516C957.187 465.576 957.193 485.491 957.16 487.262C956.67 513.252 940.42 535.898 915.29 542.335C915.116 542.378 914.961 542.479 914.85 542.623C914.739 542.766 914.679 542.943 914.68 543.125V589.024C914.68 589.167 914.623 589.304 914.522 589.404C914.421 589.505 914.283 589.562 914.14 589.562H882.64C882.489 589.562 882.344 589.502 882.237 589.395C882.13 589.289 882.07 589.145 882.07 588.994Z"/>
</svg>